<?xml version="1.0" encoding="utf-8"?>
<!-- Generator: Adobe Illustrator 19.1.0, SVG Export Plug-In . SVG Version: 6.00 Build 0)  -->
<svg version="1.1" id="Layer_1" xmlns="http://www.w3.org/2000/svg" xmlns:xlink="http://www.w3.org/1999/xlink" x="0px" y="0px"
	 viewBox="0 0 24 24" style="enable-background:new 0 0 24 24;" xml:space="preserve">
<style type="text/css">
	.st0{fill:#76BCFF;}
</style>
<path class="st0" d="M24,12c0,6.6-5.4,12-12,12S0,18.6,0,12S5.4,0,12,0S24,5.4,24,12z M13.5,7.2L6,14.7V18h3.8l7.4-7.2L13.5,7.2z
	 M9.3,17H8v-1H7v-0.8l0.9-0.9l2.2,2L9.3,17z M14,9c0,0.1,0,0.1-0.1,0.2L9.1,14C9.1,14,9,14,9,14c-0.1,0-0.2-0.1-0.2-0.2
	c0-0.1,0-0.1,0.1-0.2l4.8-4.8c0,0,0.1-0.1,0.2-0.1C13.9,8.8,14,8.9,14,9z M19.6,8.1c0-0.3-0.1-0.6-0.3-0.8l-2.1-2.1
	C17,5,16.7,4.9,16.4,4.9c-0.3,0-0.6,0.1-0.8,0.3l-1.5,1.5l3.7,3.7l1.5-1.5C19.5,8.7,19.6,8.4,19.6,8.1z"/>
</svg>
