<?xml version="1.0" encoding="utf-8"?>
<!-- Generator: Adobe Illustrator 19.1.0, SVG Export Plug-In . SVG Version: 6.00 Build 0)  -->
<svg version="1.1" id="Layer_1" xmlns="http://www.w3.org/2000/svg" xmlns:xlink="http://www.w3.org/1999/xlink" x="0px" y="0px"
	 viewBox="-487 1 512 512" style="enable-background:new -487 1 512 512;" xml:space="preserve">
<g>
	<path d="M25,257c0,140.8-115.2,256-256,256s-256-115.2-256-256S-371.8,1-231,1S25,116.2,25,257z M-199,154.6l-160,160V385h81.1
		l157.9-153.6L-199,154.6z M-288.6,363.7h-27.7v-21.3h-21.3v-17.1l19.2-19.2l46.9,42.7L-288.6,363.7z M-188.3,193
		c0,2.1,0,2.1-2.1,4.3l-102.4,102.4h-2.1c-2.1,0-4.3-2.1-4.3-4.3s0-2.1,2.1-4.3l102.4-102.4c0,0,2.1-2.1,4.3-2.1
		C-190.5,188.7-188.3,190.9-188.3,193z M-68.9,173.8c0-6.4-2.1-12.8-6.4-17.1l-44.8-44.8c-4.3-4.3-10.7-6.4-17.1-6.4
		c-6.4,0-12.8,2.1-17.1,6.4l-32,32l78.9,78.9l32-32C-71,186.6-68.9,180.2-68.9,173.8z"/>
</g>
</svg>
